<?xml version="1.0" encoding="utf-8"?>
<!-- Generator: Adobe Illustrator 23.0.1, SVG Export Plug-In . SVG Version: 6.00 Build 0)  -->
<svg version="1.1" id="Layer_1" xmlns="http://www.w3.org/2000/svg" xmlns:xlink="http://www.w3.org/1999/xlink" x="0px" y="0px"
	 viewBox="0 0 130 200" style="enable-background:new 0 0 130 200;" xml:space="preserve">
<style type="text/css">
	.st0{fill:#FFFFFF;}
	.st1{fill:#FDB913;}
	.st2{fill:#8ED8F8;}
	.st3{fill:#BDCC26;}
	.st4{fill:#013D5B;}
</style>
<path class="st0" d="M126.8,133.7c0,8.5-1.6,16.8-4.8,24.6c-3.1,7.5-7.4,14.2-13,20c-5.6,5.8-12,10.3-19.2,13.5
	c-7.5,3.3-15.4,5-23.6,5h-2.3c-8.2,0-16.1-1.7-23.6-5c-7.2-3.2-13.7-7.7-19.2-13.5c-5.6-5.8-9.9-12.5-13-20
	c-2.4-5.8-3.9-11.9-4.5-18.2c-0.1-0.6-0.1-1.2-0.1-1.7c-0.1-1.6-0.2-3.1-0.2-4.7V66.3c0-8.5,1.6-16.8,4.8-24.6
	c3.1-7.5,7.4-14.2,13-20c5.6-5.8,12-10.3,19.2-13.5c7.5-3.3,15.4-5,23.6-5h2.3c8.2,0,16.1,1.7,23.6,5c7.2,3.2,13.7,7.7,19.2,13.5
	c5.6,5.8,9.9,12.5,13,20c3.2,7.8,4.8,16.1,4.8,24.6L126.8,133.7L126.8,133.7z"/>
<path class="st1" d="M82.5,170.2c-5,2.2-10.3,3.3-15.8,3.3h-2.4c-8,0-15.7-2.4-22.3-6.9l0,0c-0.5-0.4-1-0.7-1.5-1.1
	c-1.5-1.2-3-2.5-4.4-3.9c-0.5-0.5-0.9-0.9-1.3-1.3c-3.5-3.9-6.1-8.4-7.9-13.3c-0.2-0.5-0.4-1.1-0.5-1.6c-0.4-1.4-0.8-2.7-1-4.2
	c3.5,3.2,7.6,6.1,11.6,8.6l-3,0.7c0.6,0.5,1.3,1,2,1.6l3.4-0.8c1,0.6,2,1.2,3,1.7c3,1.7,6.1,3.3,9.4,5l-4.7,1.3
	c0.9,0.5,1.9,1.1,2.9,1.6l5.1-1.4c4.3,2,8.8,4,13.5,5.8l-6.2,1.8c1.2,0.5,2.4,1.1,3.6,1.6l6.5-1.9h0C75.8,168,79.1,169.1,82.5,170.2
	z"/>
<path class="st1" d="M106.2,66v13.7c-3.1-3-9-8.3-14.7-11.6c-5.8-3.4-11.4-2.9-15.2-1.8c0.1-0.7,0.2-1.5,0.2-2.3c0-0.4,0-0.9,0-1.3
	c0-0.3-0.1-0.7-0.1-1l28.6-5.2C105.8,59.4,106.2,62.7,106.2,66z"/>
<path class="st1" d="M102.8,49.7l-27,9.1c-0.6-2-1.5-3.9-2.8-5.5l20.7-16.4c3.2,3,5.8,6.5,7.9,10.3c0.1,0.1,0.1,0.2,0.2,0.4
	c0.2,0.4,0.4,0.7,0.6,1.1l0.1,0.1c0.1,0.1,0.1,0.2,0.1,0.3C102.6,49.4,102.7,49.6,102.8,49.7z"/>
<path class="st1" d="M87.8,32.3L71,51.2c-1.4-1.3-3-2.3-4.8-3.1c-0.2-0.1-0.5-0.2-0.8-0.3l7.4-21.2c4.3,0.7,8.5,2.1,12.4,4.2
	c0.5,0.3,1,0.6,1.5,0.8l0,0C87.1,31.9,87.5,32.1,87.8,32.3z"/>
<path class="st1" d="M65.8,26.1L62.5,47c-0.8-0.1-1.6-0.2-2.4-0.2c-0.7,0-1.5,0-2.2,0.1c-1,0.1-2.8,0.6-2.8,0.6l-5.4-18.6
	c0.3-0.1,0.5-0.2,0.8-0.3c0.5-0.2,1.1-0.4,1.6-0.6c3.9-1.3,8-1.9,12.2-1.9H65.8z"/>
<path class="st1" d="M52.3,48.6c0,0-1.2,0.7-1.8,1.1c-0.8,0.6-1.6,1.2-2.3,1.9c-0.3,0.3-0.6,0.6-0.8,0.9L34,40.4
	c0.3-0.4,0.7-0.8,1-1.2c0.6-0.7,1.3-1.3,1.9-2c0.4-0.4,0.8-0.8,1.3-1.1c1.8-1.6,3.7-3,5.7-4.2L52.3,48.6z"/>
<path class="st1" d="M45.5,54.9c-0.6,0.9-1.1,1.9-1.4,3c-1.9-0.3-3.4-0.1-5,0l-0.3,0c-5.1,0.6-11.2,5.2-14.1,7.7
	c0-1.5,0.1-2.9,0.3-4.4c0.1-0.5,0.1-1.1,0.2-1.6c0.2-1.3,0.5-2.6,0.8-3.9c0.1-0.5,0.3-1,0.5-1.6c0.6-2,1.4-4,2.3-5.8
	c0.2-0.5,0.5-1,0.8-1.5c0.3-0.5,0.6-1,0.9-1.5L45.5,54.9z"/>
<path class="st2" d="M106.2,135.4L106.2,135.4c-0.1,1.8-0.3,3.5-0.6,5.2c-0.1,0.4-0.2,0.9-0.2,1.3c-0.2,0.9-0.4,1.7-0.6,2.5
	c0,0.1,0,0.2-0.1,0.2c0,0,0,0,0,0c-13.8-2.3-19.6-4.2-27.5-6.9l-0.5-0.2c-2-0.7-3.8-1.3-5.2-1.8c0,0,0,0,0,0c0,0,0,0,0,0
	c1.3-0.3,2.2-0.8,3-1.3c1.3-0.7,2.3-1.3,4.7-1.3c2.3,0,3.4,0.6,4.7,1.3c1.3,0.7,2.8,1.6,5.6,1.6c2.8,0,4.3-0.8,5.7-1.6
	c1.3-0.7,2.3-1.3,4.7-1.3c1.2,0,2,0.2,2.7,0.4c0.7,0.2,1.3,0.6,1.9,0.9C104.9,134.8,105.5,135.1,106.2,135.4z"/>
<path class="st2" d="M106.2,125.4v7.8c-0.3-0.1-0.6-0.3-0.8-0.5c-1.3-0.7-2.8-1.6-5.7-1.6c-1.4,0-2.5,0.2-3.4,0.5
	c-0.9,0.3-1.6,0.7-2.3,1.1c-1.3,0.7-2.3,1.3-4.7,1.3c-2.3,0-3.4-0.6-4.7-1.3c-1.3-0.7-2.8-1.6-5.6-1.6c-2.8,0-4.3,0.8-5.7,1.6
	c-1.3,0.7-2.3,1.3-4.7,1.3c-1.3,0-2.2-0.2-3-0.5c-3.5-1.4-8.6-4-11.7-6.8v0c0,0,0,0,0,0c0.8-0.3,1.5-0.7,2.1-1
	c1.3-0.7,2.3-1.3,4.7-1.3c2.3,0,3.4,0.6,4.7,1.3c1.3,0.7,2.8,1.6,5.6,1.6c2.8,0,4.3-0.8,5.6-1.6c1.3-0.7,2.3-1.3,4.7-1.3
	c2.3,0,3.4,0.6,4.7,1.3c1.3,0.7,2.8,1.6,5.6,1.6c2.8,0,4.3-0.8,5.7-1.6c1.3-0.7,2.3-1.3,4.7-1.3c1,0,1.7,0.1,2.4,0.3
	C105.2,124.8,105.7,125.1,106.2,125.4z"/>
<path class="st2" d="M106.2,115.7v7.4c-1-0.4-2.3-0.8-4.1-0.8c-1.4,0-2.5,0.2-3.4,0.5c-0.9,0.3-1.6,0.7-2.3,1.1
	c-1.3,0.7-2.3,1.3-4.7,1.3c-2.3,0-3.4-0.6-4.7-1.3c-1.3-0.7-2.8-1.6-5.6-1.6c-2.8,0-4.3,0.8-5.6,1.6c-1.3,0.7-2.4,1.3-4.7,1.3
	s-3.4-0.6-4.7-1.3c-1.3-0.7-2.8-1.6-5.6-1.6c-2.8,0-4.3,0.8-5.6,1.6c-0.8,0.5-1.6,0.9-2.6,1.1c-0.6-0.9-0.9-1.7-0.9-2.6
	c0-1.3,0.3-2.8,2.8-4.3c0.9-0.6,2.6-1.3,4.2-1.8c0.7-0.2,1.4-0.4,2.2-0.6c0.6-0.1,1.3-0.2,2.1-0.2c2.3,0,3.4,0.6,4.7,1.3
	c1.3,0.7,2.8,1.6,5.6,1.6c2.8,0,4.3-0.8,5.6-1.6c1.3-0.7,2.4-1.3,4.7-1.3c2.3,0,3.4,0.6,4.7,1.3c1.3,0.7,2.8,1.6,5.6,1.6
	c2.8,0,4.3-0.8,5.6-1.6c1.3-0.7,2.3-1.3,4.7-1.3C105,115.5,105.7,115.6,106.2,115.7z"/>
<path class="st2" d="M106.2,105.6v8c-0.6-0.1-1.2-0.2-1.9-0.2c-1.4,0-2.5,0.2-3.4,0.5c-0.9,0.3-1.6,0.7-2.3,1.1
	c-1.3,0.7-2.3,1.3-4.7,1.3c-2.3,0-3.4-0.6-4.7-1.3c-1.3-0.7-2.8-1.6-5.6-1.6c-2.8,0-4.3,0.8-5.6,1.6c-1.3,0.7-2.4,1.3-4.7,1.3
	c-2.3,0-3.4-0.6-4.7-1.3c-0.5-0.3-1-0.5-1.5-0.8c0,0,0,0,0.1,0c3.4-0.7,7.2-1.4,11.1-2.2C88.8,110.1,99.6,108,106.2,105.6
	L106.2,105.6z"/>
<path class="st3" d="M55.5,98.9v6.5c-0.5,0.1-1,0.2-1.5,0.3c-3.6,0.7-6,1.2-8.5,1.7c-1,0.2-2.1,0.5-3.2,0.7v-9.2
	c1.6,1.8,3.9,2.8,6.4,2.8h0.4C51.6,101.7,53.9,100.7,55.5,98.9z"/>
<path class="st3" d="M55.5,90.7v2.7c0,3.4-2.9,6.1-6.4,6.1h-0.2c-3.5,0-6.4-2.7-6.4-6.1v-2.8c1.6,1.8,3.9,2.8,6.4,2.9l0.3,0
	C51.5,93.5,53.9,92.5,55.5,90.7z"/>
<path class="st3" d="M55.5,82.1v3.1c0,3.4-2.9,6.1-6.4,6.1l-0.2,0c-3.5,0-6.4-3.1-6.4-6.5v-2.7c1.6,1.8,4,2.8,6.4,2.8l0.3,0
	C51.5,84.9,53.9,83.9,55.5,82.1z"/>
<path class="st3" d="M106.2,82.4v7.7c-6.1-2.8-14.4-5.2-21.1-6.6c-4.7-3.5-8.8-6.6-12.5-9.2c-1.2-0.8-2.3-1.6-3.3-2.4
	c2.2-1.4,3.7-2.2,4.2-2.5c0.6-0.3,1.3-0.6,2.3-0.9c3.4-1.2,8.9-2.1,14.7,1.3C97.1,73.6,104.1,80.3,106.2,82.4z"/>
<path class="st3" d="M94.8,94.3L94.8,94.3c-0.1,2.2-6.6,4.6-19.4,7.4l-2.3,0.5c-3.1,0.7-8.2,1.6-8.2,1.6s-3.8,0.7-7.2,1.3v-6.1
	c1.6,1.7,3.8,2.7,6.2,2.8h0.2c0.6,0,1.1-0.5,1.1-1.1c0-0.6-0.5-1.1-1.1-1.1c-0.1,0-0.1,0-0.2,0c-3.4-0.1-6.2-2.8-6.2-6.1v-2.7
	c1.6,1.7,3.8,2.7,6.2,2.8h0.2c0.6,0,1.1-0.5,1.1-1.1s-0.5-1.1-1.1-1.1c-0.1,0-0.1,0-0.2,0c-3.4-0.1-6.2-2.8-6.2-6.1v-3.1
	c1.6,1.7,3.8,2.7,6.2,2.8h0.2c0.6,0,1.1-0.5,1.1-1.1s-0.5-1.1-1.1-1.1c-0.1,0-0.1,0-0.2,0c-3.4-0.1-6.2-2.8-6.2-6.1v-0.1
	c0-0.6-0.5-1.1-1.1-1.1c-0.6,0-1.1,0.5-1.1,1.1v0.1c0,3.4-2.9,6.1-6.4,6.1l-0.2,0c-3.5,0-6.4-2.6-6.4-5.9v-3.1
	c1.6,1.8,3.9,2.8,6.4,2.8h0.2c0.6,0,1.1-0.5,1.1-1.1c0-0.6-0.5-1.1-1.1-1.1h-0.1c-3.5,0-6.4-2.7-6.4-6.1v-0.1c0-0.6-0.5-1.1-1.1-1.1
	s-1.1,0.5-1.1,1.1v0.1c0,3.3-2.8,6-6.2,6.1c-0.1,0-0.1,0-0.2,0c-0.6,0-1.1,0.5-1.1,1.1c0,0.6,0.5,1.1,1.1,1.1H34
	c2.4-0.1,4.6-1.1,6.2-2.8v3.1c0,3.3-2.8,5.8-6.2,5.9c-0.1,0-0.1,0-0.2,0c-0.6,0-1.1,0.5-1.1,1.1c0,0.6,0.5,1.1,1.1,1.1H34
	c2.4-0.1,4.6-1.1,6.2-2.8v2.7c0,3.3-2.8,6.3-6.2,6.4c-0.1,0-0.1,0-0.2,0c-0.6,0-1.1,0.5-1.1,1.1c0,0.6,0.5,1.1,1.1,1.1H34
	c2.4-0.1,4.6-1.1,6.2-2.8v2.8c0,3.3-2.8,6-6.2,6.1c-0.1,0-0.1,0-0.2,0c-0.6,0-1.1,0.5-1.1,1.1c0,0.6,0.5,1.1,1.1,1.1H34
	c2.4-0.1,4.6-1.1,6.2-2.8v9.8c-0.7,0.2-1.3,0.3-1.6,0.4c-1,0.3-5.6,1.5-9.3,3c-2.8,1.2-4.6,2.1-4.6,2.1V68.3c0,0,0,0,0,0
	c0.1-0.1,0.2-0.2,0.4-0.3c0.1-0.1,0.3-0.3,0.5-0.4c0.1-0.1,0.2-0.2,0.3-0.2c1-0.8,2.3-1.9,3.9-3c0.2-0.1,0.3-0.2,0.5-0.4
	c0.9-0.6,1.9-1.2,2.9-1.8c0.3-0.2,0.7-0.4,1-0.5c0.2-0.1,0.3-0.2,0.5-0.2c0.2-0.1,0.5-0.2,0.7-0.3c0.2-0.1,0.4-0.2,0.6-0.2
	c0.2-0.1,0.4-0.2,0.6-0.2c0.8-0.3,1.5-0.5,2.2-0.6c0.2,0,0.4-0.1,0.5-0.1l0.3,0c1.3-0.2,2.5-0.3,4.1-0.1c3.7,0.5,9.3,3,22.2,12h0
	c0.6,0.4,4.2,3,5.6,3.9c2.8,2,5.9,4.3,9.2,6.8c0.3,0.2,4.3,3.2,4.6,3.4c1,0.8,5.7,4.3,6,4.6l1.6,1.2l1.1,0.9
	C93.8,92.6,94.8,93.5,94.8,94.3z"/>
<path class="st4" d="M14.3,53.8l0.3,0.1c1,0.3,1.8,0.6,2.6,0.6c0.5,0,1-0.1,1.4-0.3c1-0.5,1.6-1.2,1.9-2.3c0.3-1.1,0.3-2-0.2-3
	c-0.7-1.3-1.8-1.7-3.5-2.2l-0.1,0c-1.6-0.5-2.8-0.9-4.1-0.2c-1,0.5-1.6,1.2-1.9,2.3c-0.3,1.1-0.3,2,0.2,3
	C11.6,52.9,12.8,53.3,14.3,53.8z M13.5,48.4c0.2-0.1,0.3-0.1,0.5-0.1c0.4,0,1,0.1,2.1,0.5c1.8,0.6,2.1,0.8,2.4,1.2
	c0.2,0.3,0.2,0.8,0.1,1.2c-0.1,0.4-0.4,0.7-0.8,0.9c-0.4,0.2-0.9,0.2-2.6-0.4c-1.8-0.6-2.1-0.8-2.4-1.2c-0.2-0.3-0.2-0.8-0.1-1.2
	C12.8,48.8,13.1,48.5,13.5,48.4z"/>
<path class="st4" d="M27.5,38.1l-2.4-1.9l-0.3-1.6l4.9,0.8l1.7-2.1l-7-1l-1.1-5.2l-1.8,2.2l1.1,4.9l-3.1-2.4l-1.4,1.8l8,6.3
	L27.5,38.1z"/>
<path class="st4" d="M38.6,25.4l2.7-1.7l1.4,1.2l2.1-1.2l-8.4-6.8l-1.5,0.9l2.1,10.6l2.1-1.2L38.6,25.4z M38.2,23.4l-0.6-2.9
	l2.2,1.9L38.2,23.4z"/>
<path class="st4" d="M56.6,9.8l1,5.5l-4.5-4.8l-2,0.4l1.8,10l2.3-0.4l-1-5.5l4.5,4.8l2-0.4l-1.8-10L56.6,9.8z"/>
<path class="st4" d="M74.6,9.9l-5.4,9.4l2.4,0.4l0.9-1.6l3.2,0.6l0.3,1.8l2.4,0.4l-1.9-10.7L74.6,9.9z M75.3,16.6l-1.9-0.3l1.4-2.6
	L75.3,16.6z"/>
<path class="st4" d="M92.1,18.5c0.4-0.1,0.8-0.1,1.2,0.1c0.6,0.3,0.8,0.7,1,1.5l0,0.2l2.1-0.6l0-0.2c-0.4-1.3-0.9-2-2.1-2.7
	c-1-0.6-1.9-0.7-3-0.4c-1.4,0.4-2,1.5-2.8,2.9l-0.1,0.2c-0.8,1.4-1.5,2.5-1.1,3.9c0.3,1,0.9,1.8,1.8,2.4c0.7,0.4,1.3,0.6,2,0.6
	c0.4,0,0.7-0.1,1.1-0.2c1-0.3,1.6-0.9,2.4-2.2l0.8-1.4l-3.5-2l-1,1.7l1.5,0.9l-0.1,0.1c-0.3,0.4-0.6,0.7-0.9,0.9
	c-0.4,0.1-0.8,0.1-1.3-0.2c-0.4-0.2-0.6-0.6-0.7-0.9c-0.1-0.5,0-0.9,1-2.5C91.3,18.9,91.6,18.6,92.1,18.5z"/>
<path class="st4" d="M101.9,33.9l2.1,2.5l-1,1.6l1.5,1.8l5.4-9.4l-1.1-1.4l-10.2,3.7l1.5,1.8L101.9,33.9z M106.6,32.1l-1.5,2.5
	l-1.2-1.5L106.6,32.1z"/>
<path class="st4" d="M109.4,49.5l5.3-1.8l-4.1,5.2l0.7,1.9l9.6-3.3l-0.7-2.2l-5.2,1.8l4.1-5.2l-0.6-1.9l-9.6,3.3L109.4,49.5z"/>
<path class="st4" d="M17.2,147.4c0.9-0.1,1.6-0.6,2.1-1.2c0.5-0.7,0.7-1.6,0.6-2.6l-0.6-4L9.1,141l0.3,2.3l3.9-0.6l0.1,1.1l-3.6,2.5
	l0.4,2.6l4-2.9C14.9,147.1,16,147.6,17.2,147.4z M16.8,145.2c-0.7,0.1-1.2-0.3-1.3-1.1l-0.2-1.6l2.2-0.3l0.2,1.6
	C17.9,144.5,17.5,145.1,16.8,145.2z"/>
<path class="st4" d="M13.7,159.5l1.2,2.1l1.8-0.3l1.6,2.8l-1.2,1.4l1.2,2.1l7.2-8.3l-0.9-1.6L13.7,159.5z M21.8,160.4l-2,2.2
	l-0.9-1.7L21.8,160.4z"/>
<path class="st4" d="M32.8,168.8l-7,7.5l1.7,1.6l7-7.5L32.8,168.8z"/>
<path class="st4" d="M44.3,176.9l-2.1-1l-4.4,9.3l6.2,2.9l0.9-1.9l-4.1-1.9L44.3,176.9z"/>
<path class="st4" d="M75.3,180.8l-7.4,0.8l0.2,2.1l2.6-0.3l0.9,8.1l2.3-0.3l-0.9-8.1l2.6-0.3L75.3,180.8z"/>
<path class="st4" d="M91.6,177.8c-0.9-1.7-2.7-2.3-4.5-1.4l-3.6,1.8l4.6,9.2l2.1-1l-1.8-3.5l1-0.5l3.5,2.7l2.4-1.2l-4-2.9
	C92,180.1,92.2,178.9,91.6,177.8z M89,180.4l-1.5,0.7l-1-2l1.5-0.7c0.3-0.2,0.6-0.2,0.9-0.1c0.3,0.1,0.5,0.3,0.7,0.6
	C89.8,179.5,89.6,180.1,89,180.4z"/>
<path class="st4" d="M99,167.6l5.1,9.7l1.6-1.8l-0.9-1.6l2.2-2.4l1.7,0.7l1.6-1.8l-10.1-4.2L99,167.6z M105.1,170.6l-1.3,1.4
	l-1.4-2.6L105.1,170.6z"/>
<path class="st4" d="M107.8,154.1l-1,2.1l9.4,4.2l1-2.1L107.8,154.1z"/>
<path class="st4" d="M119.5,139.2l-0.5,4.5l-8.1-0.9l-0.3,2.3l10.2,1.2l0.8-6.8L119.5,139.2z"/>
<path class="st4" d="M125,40.5c-3.2-7.9-7.8-15-13.7-21C105.5,13.4,98.6,8.6,91,5.3C83.1,1.8,74.7,0,66.1,0h-2.3
	c-8.6,0-17,1.8-24.9,5.3c-7.6,3.4-14.4,8.1-20.3,14.2c-5.8,6.1-10.4,13.2-13.6,21C1.7,48.7,0,57.4,0,66.3v67.3
	c0,8.9,1.7,17.6,5,25.8c3.2,7.9,7.8,15,13.6,21c5.9,6.1,12.7,10.9,20.3,14.2c7.9,3.5,16.3,5.3,24.9,5.3h2.3c8.6,0,17-1.8,24.9-5.3
	c7.6-3.4,14.4-8.1,20.3-14.2c5.8-6.1,10.4-13.2,13.7-21c3.3-8.2,5-16.9,5-25.8V66.3C130,57.4,128.3,48.7,125,40.5z M126.8,133.7
	c0,8.5-1.6,16.8-4.8,24.6c-3.1,7.5-7.4,14.2-13,20c-5.6,5.8-12,10.3-19.2,13.5c-7.5,3.3-15.4,5-23.6,5h-2.3c-8.2,0-16.1-1.7-23.6-5
	c-7.2-3.2-13.7-7.7-19.2-13.5c-5.6-5.8-9.9-12.5-13-20c-2.4-5.8-3.9-11.9-4.5-18.2c-0.1-0.6-0.1-1.2-0.1-1.7
	c-0.1-1.6-0.2-3.1-0.2-4.7V66.3c0-8.5,1.6-16.8,4.8-24.6c3.1-7.5,7.4-14.2,13-20c5.6-5.8,12-10.3,19.2-13.5c7.5-3.3,15.4-5,23.6-5
	h2.3c8.2,0,16.1,1.7,23.6,5c7.2,3.2,13.7,7.7,19.2,13.5c5.6,5.8,9.9,12.5,13,20c3.2,7.8,4.8,16.1,4.8,24.6L126.8,133.7L126.8,133.7z
	"/>
<path class="st4" d="M86.1,168.5l-0.2-0.1l-0.3-0.1c-0.7-0.2-1.4-0.5-2.2-0.7c-0.3-0.1-0.5-0.2-0.8-0.3c-1.9-0.6-3.8-1.3-5.7-2
	c-1.4-0.5-2.7-1-4.1-1.5h0c-0.2-0.1-0.4-0.2-0.7-0.2c-0.4-0.1-0.7-0.3-1.1-0.4c-4.1-1.6-8.1-3.2-12.1-5c-1.1-0.5-2.2-1-3.2-1.5h0
	c-4.4-2.1-8.6-4.2-12.5-6.5c-0.9-0.5-1.7-1-2.5-1.5c-0.2-0.1-0.5-0.3-0.8-0.5c-2.9-1.8-6.9-4.6-9.3-6.3c0,0-0.1-0.1-0.1-0.1
	c-0.4-0.3-0.7-0.5-1-0.7c-0.1-0.1-0.1-0.1-0.2-0.1c0,0,0,0-0.1-0.1c0,0-0.1-0.1-0.1-0.1c-0.2-0.1-0.3-0.2-0.3-0.2l0,0
	c-1.2-0.8-2.6-1.9-4-3.1c0,0-0.1-0.1-0.1-0.1c-0.6-0.5-1.2-1-1.8-1.5c-0.1-0.1-0.1-0.1-0.2-0.2c-0.1-0.1-0.2-0.2-0.3-0.3
	c-0.2-0.2-0.3-0.3-0.5-0.5c-0.2-0.2-0.3-0.3-0.5-0.5c-1.4-1.4-2.7-2.8-3.7-4.3c-0.1-0.2-0.2-0.3-0.3-0.5c-0.1-0.2-0.2-0.3-0.3-0.5
	c-0.1-0.2-0.2-0.3-0.3-0.5c-0.1-0.2-0.2-0.4-0.3-0.6c-0.1-0.3-0.2-0.5-0.3-0.8c0.2,1,0.5,2,0.9,3.1c1.2,2.8,3.2,5.6,5.8,8.3
	c0,0.1,0,0.2,0,0.3c0.1,0.6,0.2,1.2,0.3,1.7c0.3,1.7,0.7,3.4,1.2,5.1c0.2,0.6,0.3,1.1,0.5,1.6c2.6,7.5,7.3,14.1,13.6,19
	c0.5,0.4,1,0.8,1.5,1.1c7.1,5.1,15.4,7.8,24.1,7.8h2.4c7.8,0,15.2-2.1,21.8-6.2l0,0L86.1,168.5z M66.6,173.5h-2.4
	c-8,0-15.7-2.4-22.3-6.9l0,0c-0.5-0.4-1-0.7-1.5-1.1c-1.5-1.2-3-2.5-4.4-3.9c-0.5-0.5-0.9-0.9-1.3-1.3c-3.5-3.9-6.1-8.4-7.9-13.3
	c-0.2-0.5-0.4-1.1-0.5-1.6c-0.4-1.4-0.8-2.7-1-4.2c3.5,3.2,7.6,6.1,11.6,8.6l-3,0.7c0.6,0.5,1.3,1,2,1.6l3.4-0.8c1,0.6,2,1.2,3,1.7
	c3,1.7,6.1,3.3,9.4,5l-4.7,1.3c0.9,0.5,1.9,1.1,2.9,1.6l5.1-1.4c4.3,2,8.8,4,13.5,5.8l-6.2,1.8c1.2,0.5,2.4,1.1,3.6,1.6l6.5-1.9h0
	c3.3,1.2,6.6,2.4,10,3.5C77.5,172.4,72.1,173.5,66.6,173.5z"/>
<path class="st4" d="M59.7,147.1l-8.9-14.5l-0.7,0.3l-4.7-3.2c-0.3-0.2-0.8-0.1-1,0.2c-0.2,0.3-0.1,0.8,0.2,1l4,2.7l-2.1,0.9
	l-4.7-3.3c-0.3-0.2-0.8-0.1-1,0.2c-0.2,0.3-0.1,0.8,0.2,1l4,2.7l-2.1,0.9l-4.7-3.3c-0.3-0.2-0.8-0.1-1,0.2c-0.2,0.3-0.1,0.8,0.2,1
	l4,2.7l-2.1,0.9l-4.7-3.3c-0.3-0.2-0.8-0.1-1,0.2c-0.2,0.3-0.1,0.8,0.2,1l4,2.7l-2.1,0.9l-4.7-3.2c-0.3-0.2-0.8-0.1-1,0.2
	s-0.1,0.8,0.2,1l4,2.7l-1.6,0.7L59.7,147.1z M39.2,139.9l10.8-4.6l5.2,8.5L39.2,139.9z"/>
<path class="st4" d="M100.1,158.2l-13.8-13l-0.7,0.5l-6.2-2c-0.4-0.1-0.8,0.1-0.9,0.5c-0.1,0.4,0.1,0.8,0.5,0.9l5,1.6l-1.8,1.2
	l-6.2-2c-0.4-0.1-0.8,0.1-0.9,0.5c-0.1,0.4,0.1,0.8,0.5,0.9l5,1.6l-1.8,1.2l-6.1-2c-0.4-0.1-0.8,0.1-0.9,0.5
	c-0.1,0.4,0.1,0.8,0.5,0.9l5,1.6l-1.8,1.2l-6.1-2c-0.4-0.1-0.8,0.1-0.9,0.5c-0.1,0.4,0.1,0.8,0.5,0.9l5,1.6l-1.8,1.2l-6-2
	c-0.4-0.1-0.8,0.1-0.9,0.5c-0.1,0.4,0.1,0.8,0.5,0.9l4.9,1.6l-1.3,0.8L100.1,158.2z M76,154.6l10.1-6.6l8.1,7.6L76,154.6z"/>
<path class="st4" d="M113.2,98.5c0,1.4-2.5,2.9-5,4c-0.7,0.3-1.3,0.6-1.9,0.8c-1.2,0.5-2.3,0.8-3,1.1c-0.1,0-0.2,0.1-0.3,0.1
	c-0.1,0-0.2,0.1-0.3,0.1c-6.6,1.9-16,3.8-24.7,5.4c-8,1.5-15.4,3-19.8,4.3c-1.4,0.4-3.4,1.2-4.7,2c-2.6,1.6-3.8,3.5-3.8,6.1
	c0,6.7,13.3,12.2,15.9,13.2c0.7,0.4,4.6,2,10.6,4l0.5,0.2c7.7,2.6,13.8,4.6,27.5,6.9c0.3,0.1,0.7,0.1,1,0.2c0,0,0.1,0,0.1,0l0.4,0.1
	l0.4,0.1c1.4-4.2,2.2-8.8,2.2-13.4v-28.7c3.1-1.4,4.3-3.2,4.8-4.6C113.3,99.3,113.2,98.5,113.2,98.5z M106.2,135.4
	c-0.1,1.8-0.3,3.5-0.6,5.2c-0.1,0.4-0.2,0.9-0.3,1.3c-0.2,0.9-0.4,1.7-0.6,2.5c0,0.1,0,0.2-0.1,0.2c0,0,0,0,0,0
	c-13.8-2.3-19.6-4.2-27.5-6.9l-0.5-0.2c-2-0.7-3.8-1.3-5.2-1.8c0,0,0,0,0,0c0,0,0,0,0,0c1.3-0.3,2.2-0.8,3-1.3
	c1.3-0.7,2.3-1.3,4.7-1.3c2.3,0,3.4,0.6,4.7,1.3c1.3,0.7,2.8,1.6,5.6,1.6c2.8,0,4.3-0.8,5.7-1.6c1.3-0.7,2.3-1.3,4.7-1.3
	c1.2,0,2,0.2,2.7,0.4c0.7,0.2,1.3,0.6,1.9,0.9C104.9,134.8,105.5,135.1,106.2,135.4L106.2,135.4z M106.2,133.2
	c-0.3-0.1-0.6-0.3-0.8-0.5c-1.3-0.7-2.8-1.6-5.7-1.6c-1.4,0-2.5,0.2-3.4,0.5c-0.9,0.3-1.6,0.7-2.3,1.1c-1.3,0.7-2.3,1.3-4.7,1.3
	c-2.3,0-3.4-0.6-4.7-1.3c-1.3-0.7-2.8-1.6-5.6-1.6c-2.8,0-4.3,0.8-5.7,1.6c-1.3,0.7-2.3,1.3-4.7,1.3c-1.3,0-2.2-0.2-3-0.5
	c-3.5-1.4-8.6-4-11.7-6.8v0c0,0,0,0,0,0c0.8-0.3,1.5-0.7,2.1-1c1.3-0.7,2.3-1.3,4.7-1.3c2.3,0,3.4,0.6,4.7,1.3
	c1.3,0.7,2.8,1.6,5.6,1.6c2.8,0,4.3-0.8,5.6-1.6c1.3-0.7,2.3-1.3,4.7-1.3c2.3,0,3.4,0.6,4.7,1.3c1.3,0.7,2.8,1.6,5.6,1.6
	c2.8,0,4.3-0.8,5.7-1.6c1.3-0.7,2.3-1.3,4.7-1.3c1,0,1.7,0.1,2.4,0.3c0.6,0.2,1.2,0.4,1.7,0.7V133.2z M106.2,123.1
	c-1-0.4-2.3-0.8-4.1-0.8c-1.4,0-2.5,0.2-3.4,0.5c-0.9,0.3-1.6,0.7-2.3,1.1c-1.3,0.7-2.3,1.3-4.7,1.3c-2.3,0-3.4-0.6-4.7-1.3
	c-1.3-0.7-2.8-1.6-5.6-1.6c-2.8,0-4.3,0.8-5.6,1.6c-1.3,0.7-2.4,1.3-4.7,1.3c-2.3,0-3.4-0.6-4.7-1.3c-1.3-0.7-2.8-1.6-5.6-1.6
	c-2.8,0-4.3,0.8-5.6,1.6c-0.8,0.5-1.6,0.9-2.6,1.1c-0.6-0.9-0.9-1.7-0.9-2.6c0-1.3,0.3-2.8,2.8-4.3c0.9-0.6,2.6-1.3,4.2-1.8
	c0.7-0.2,1.4-0.4,2.2-0.6c0.6-0.1,1.3-0.2,2.1-0.2c2.3,0,3.4,0.6,4.7,1.3c1.3,0.7,2.8,1.6,5.6,1.6c2.8,0,4.3-0.8,5.6-1.6
	c1.3-0.7,2.4-1.3,4.7-1.3c2.3,0,3.4,0.6,4.7,1.3c1.3,0.7,2.8,1.6,5.6,1.6c2.8,0,4.3-0.8,5.6-1.6c1.3-0.7,2.3-1.3,4.7-1.3
	c0.8,0,1.4,0.1,1.9,0.2V123.1z M106.2,113.6c-0.6-0.1-1.2-0.2-1.9-0.2c-1.4,0-2.5,0.2-3.4,0.5c-0.9,0.3-1.6,0.7-2.3,1.1
	c-1.3,0.7-2.3,1.3-4.7,1.3c-2.3,0-3.4-0.6-4.7-1.3c-1.3-0.7-2.8-1.6-5.6-1.6c-2.8,0-4.3,0.8-5.6,1.6c-1.3,0.7-2.4,1.3-4.7,1.3
	s-3.4-0.6-4.7-1.3c-0.5-0.3-1-0.5-1.5-0.8c0,0,0,0,0.1,0c3.4-0.7,7.2-1.4,11.1-2.2c10.5-2,21.3-4.1,27.9-6.4h0V113.6z"/>
<path class="st4" d="M106.9,55.9c-0.6-2.4-1.4-4.6-2.3-6.8c-2.2-5.1-5.4-9.6-9.4-13.4c-1.9-1.8-4-3.4-6.2-4.9
	c-4.7-3-10-5.1-15.6-6.1c-2.2-0.4-4.5-0.6-6.8-0.6h-2.4c-5.4,0-10.5,1-15.2,2.9c-2.1,0.8-4.2,1.9-6.1,3C30.9,37.4,22.8,50.7,22.8,66
	v49.3c-2.3,1.4-4.2,3.1-5.2,5.3c-0.1,0.1-0.1,0.3-0.2,0.4c0.3-0.3,1.8-2.1,4.3-3.5c2.8-1.6,5-2.5,7.1-3.2c2.1-0.7,5.7-2,9.8-3
	c4.1-1,6.9-1.7,12.9-2.9c6-1.2,12-2.3,12-2.3s3.7-0.7,6.4-1.2l0.1,0c10.8-2.1,17.4-3.9,21.4-5.5c4.2-1.7,5.6-3.3,5.6-5
	c0.1-1.5-0.7-2.6-3.2-4.4c-1.6-1.2-3.1-2.4-4.6-3.5c2.4,0.6,4.9,1.3,7.3,2.1c3.9,1.2,7.1,2.5,9.7,3.7c0,0,0.1,0,0.1,0.1
	c0.7,0.3,1.3,0.6,1.8,0.9V66C108.2,62.5,107.7,59.1,106.9,55.9z M55.5,105.4c-0.5,0.1-1,0.2-1.5,0.3c-3.6,0.7-6,1.2-8.5,1.7
	c-1,0.2-2.1,0.5-3.2,0.7v-9.2c1.6,1.8,3.9,2.8,6.4,2.8h0.4c2.4,0,4.7-1,6.4-2.8V105.4z M55.5,93.4c0,3.4-2.9,6.1-6.4,6.1h-0.2
	c-3.5,0-6.4-2.7-6.4-6.1v-2.8c1.6,1.8,3.9,2.8,6.4,2.9l0.3,0c2.5,0,4.8-1,6.4-2.8V93.4z M55.5,85.2c0,3.4-2.9,6.1-6.4,6.1l-0.2,0
	c-3.5,0-6.4-3.1-6.4-6.5v-2.7c1.6,1.8,4,2.8,6.4,2.8l0.3,0c2.4,0,4.8-1,6.4-2.8V85.2z M91.1,90.5l1.6,1.2l1.1,0.9c0,0,1,0.8,1,1.7v0
	c-0.1,2.1-6.6,4.6-19.4,7.3l-2.3,0.5c-3.1,0.7-8.2,1.6-8.2,1.6s-3.8,0.7-7.2,1.3v-6.1c1.6,1.7,3.8,2.7,6.2,2.8h0.2
	c0.6,0,1.1-0.5,1.1-1.1c0-0.6-0.5-1.1-1.1-1.1c-0.1,0-0.1,0-0.2,0c-3.4-0.1-6.2-2.8-6.2-6.1v-2.7c1.6,1.7,3.8,2.7,6.2,2.8h0.2
	c0.6,0,1.1-0.5,1.1-1.1s-0.5-1.1-1.1-1.1c-0.1,0-0.1,0-0.2,0c-3.4-0.1-6.2-2.8-6.2-6.1v-3.1c1.6,1.7,3.8,2.7,6.2,2.8h0.2
	c0.6,0,1.1-0.5,1.1-1.1s-0.5-1.1-1.1-1.1c-0.1,0-0.1,0-0.2,0c-3.4-0.1-6.2-2.8-6.2-6.1v-0.1c0-0.6-0.5-1.1-1.1-1.1
	c-0.6,0-1.1,0.5-1.1,1.1v0.1c0,3.4-2.9,6.1-6.4,6.1l-0.2,0c-3.5,0-6.4-2.6-6.4-5.9v-3.1c1.6,1.8,3.9,2.8,6.4,2.8h0.2
	c0.6,0,1.1-0.5,1.1-1.1c0-0.6-0.5-1.1-1.1-1.1h-0.1c-3.5,0-6.4-2.7-6.4-6.1v-0.1c0-0.6-0.5-1.1-1.1-1.1c-0.6,0-1.1,0.5-1.1,1.1v0.1
	c0,3.3-2.8,6-6.2,6.1c-0.1,0-0.1,0-0.2,0c-0.6,0-1.1,0.5-1.1,1.1c0,0.6,0.5,1.1,1.1,1.1H34c2.4-0.1,4.6-1.1,6.2-2.8v3.1
	c0,3.3-2.8,5.8-6.2,5.9c-0.1,0-0.1,0-0.2,0c-0.6,0-1.1,0.5-1.1,1.1c0,0.6,0.5,1.1,1.1,1.1H34c2.4-0.1,4.6-1.1,6.2-2.8v2.7
	c0,3.3-2.8,6.3-6.2,6.4c-0.1,0-0.1,0-0.2,0c-0.6,0-1.1,0.5-1.1,1.1c0,0.6,0.5,1.1,1.1,1.1H34c2.4-0.1,4.6-1.1,6.2-2.8v2.8
	c0,3.3-2.8,6-6.2,6.1c-0.1,0-0.1,0-0.2,0c-0.6,0-1.1,0.5-1.1,1.1c0,0.6,0.5,1.1,1.1,1.1H34c2.4-0.1,4.6-1.1,6.2-2.8v9.8
	c-0.7,0.2-1.3,0.3-1.6,0.4c-1,0.3-5.6,1.5-9.3,3c-2.8,1.2-4.6,2.1-4.6,2.1V68.3c0,0,0,0,0,0c0.1-0.1,0.2-0.2,0.4-0.3
	c0.1-0.1,0.3-0.3,0.5-0.4c0.1-0.1,0.2-0.2,0.3-0.2c1-0.8,2.3-1.9,3.9-3c0.2-0.1,0.3-0.2,0.5-0.4c0.9-0.6,1.9-1.2,2.9-1.8
	c0.3-0.2,0.7-0.4,1-0.5c0.2-0.1,0.3-0.2,0.5-0.2c0.2-0.1,0.5-0.2,0.7-0.3c0.2-0.1,0.4-0.2,0.6-0.2c0.2-0.1,0.4-0.2,0.6-0.2
	c0.8-0.3,1.5-0.5,2.2-0.6c0.2,0,0.4-0.1,0.5-0.1l0.3,0c1.3-0.2,2.5-0.3,4.1-0.1c3.7,0.5,9.3,3,22.2,12h0c0.6,0.4,4.2,3,5.6,3.9
	c2.8,2,5.9,4.3,9.2,6.8c0.3,0.2,4.3,3.2,4.6,3.4C86.1,86.7,90.7,90.3,91.1,90.5z M106.2,90.1c-6.1-2.8-14.4-5.2-21.1-6.6
	c-4.7-3.5-8.8-6.6-12.5-9.2c-1.2-0.8-2.3-1.6-3.3-2.4c2.2-1.4,3.7-2.2,4.2-2.5c0.6-0.3,1.3-0.6,2.3-0.9c3.4-1.2,8.9-2.1,14.7,1.3
	c6.6,3.8,13.7,10.6,15.7,12.6V90.1z M106.2,79.6c-3.1-3-9-8.3-14.7-11.6c-5.8-3.4-11.4-2.9-15.2-1.8c-1.6,0.4-2.8,1-3.7,1.4
	c-0.9,0.4-3.1,1.8-5.1,3.1c-13.4-9.3-19.4-12.1-23.4-12.8c-1.9-0.3-3.4-0.1-5,0l-0.3,0c-5.1,0.6-11.2,5.2-14.1,7.7
	c0-1.5,0.1-2.9,0.3-4.4c0.1-0.5,0.1-1.1,0.2-1.6c0.2-1.3,0.5-2.6,0.8-3.9c0.1-0.5,0.3-1,0.5-1.6c0.6-2,1.4-4,2.3-5.8
	c0.2-0.5,0.5-1,0.8-1.5c0.3-0.5,0.6-1,0.9-1.5c1-1.7,2.2-3.3,3.4-4.8c0,0,0.1-0.1,0.1-0.1c0.3-0.4,0.7-0.8,1-1.2
	c0.6-0.7,1.3-1.3,1.9-2c0.4-0.4,0.8-0.8,1.3-1.1c1.8-1.6,3.7-3,5.7-4.2c0.9-0.5,1.8-1,2.7-1.5c0.5-0.3,1.1-0.5,1.5-0.7
	c0.5-0.2,1-0.5,1.6-0.7c0.3-0.1,0.5-0.2,0.8-0.3c0.5-0.2,1.1-0.4,1.6-0.6c3.9-1.3,8-1.9,12.2-1.9h2.5c0.6,0,1.2,0,1.8,0
	c0.6,0,1.2,0.1,1.8,0.1c0.8,0.1,1.6,0.2,2.4,0.3c4.3,0.7,8.5,2.1,12.4,4.2c0.5,0.3,1,0.6,1.5,0.8l0,0c0.4,0.2,0.7,0.4,1.1,0.6
	c0.1,0.1,0.3,0.2,0.4,0.3c2,1.3,3.8,2.7,5.5,4.4c3.2,3,5.8,6.5,7.9,10.3c0.1,0.1,0.1,0.2,0.2,0.4c0.2,0.4,0.4,0.7,0.6,1.1l0.1,0.1
	c0.1,0.1,0.1,0.2,0.1,0.3c0.1,0.2,0.2,0.4,0.2,0.5c0.9,2.1,1.7,4.3,2.3,6.6c0.8,3.1,1.2,6.4,1.2,9.7V79.6z"/>
</svg>
